# xmcd
#
# Track frame offsets:
#	150
#	19562
#	45587
#	60072
#	72792
#	89407
#	114984
#	129477
#	142263
#	162975
#
# Disc length: 2263 seconds
#
# Revision: 1
# Processed by: cddbd v1.5.2PL0 Copyright (c) Steve Scherf et al.
# Submitted via: EZCDAudioConverter 2.1.5.1
#
DISCID=7d08d50a
DTITLE=Peter LeMarc - Den Tunna Tråden
DYEAR=2016
DGENRE=Swedish Top 40 Soul/Blues 10s
TTITLE0=Osynligt Bläck
TTITLE1=Den Tunna Tråden
TTITLE2=Söndag Över Hela Världen
TTITLE3=Den Mun Jag Alltför Ofta Kysst
TTITLE4=Nästan Lyckliga
TTITLE5=Re: Längesen
TTITLE6=Kom Och Gör Mej ... Oh!
TTITLE7=Du Skulle Göra Det För Mej
TTITLE8=Något Närmare Än Nära
TTITLE9=Ängel Av Gem
EXTD=
EXTT0=
EXTT1=
EXTT2=
EXTT3=
EXTT4=
EXTT5=
EXTT6=
EXTT7=
EXTT8=
EXTT9=
PLAYORDER=
